# Blender v2.78 (sub 0) OBJ File: '15.blend'
# www.blender.org
mtllib Toaster_01.mtl
g toaster_Cube
v -7.327585 0.828177 3.061950
v -7.588928 1.873363 -3.285606
v -7.327585 0.828177 -3.061950
v -7.588928 0.673174 -3.285606
v 7.327585 0.828177 3.061950
v -7.588928 1.873363 3.285606
v 7.327585 0.828177 -3.061950
v -7.588928 0.673174 3.285606
v -7.327585 0.828177 -0.426407
v -7.327585 0.828177 -1.614894
v -7.327585 0.828177 1.614894
v -7.327585 0.828177 0.426407
v 4.688863 4.691216 -0.426407
v -4.688863 4.691216 -0.426407
v 4.688863 4.691216 -1.614894
v -4.688863 4.691216 -1.614894
v 7.327585 0.828177 0.426407
v 7.327585 0.828177 1.614894
v 7.327585 0.828177 -1.614894
v 7.327585 0.828177 -0.426407
v -4.688863 4.691216 0.426407
v 4.688863 4.691216 0.426407
v 4.688863 4.691216 1.614894
v -4.688863 4.691216 1.614894
v 4.688863 9.987658 0.426407
v -4.688863 9.987658 0.426407
v -4.688863 9.987658 1.614894
v 4.688863 9.987658 1.614894
v -4.688863 9.987658 -1.614894
v 4.688863 9.987658 -1.614894
v -4.688863 9.987658 -0.426407
v 4.688863 9.987658 -0.426407
v -4.688863 9.987658 3.061950
v 4.688863 9.987658 3.061950
v 4.688863 0.828177 3.061950
v -4.688863 0.828177 3.061950
v 4.688863 9.987658 -3.061950
v -4.688863 9.987658 -3.061950
v -4.688863 0.828177 -3.061950
v 4.688863 0.828177 -3.061950
v -4.688863 0.828177 -0.426407
v 4.688863 0.828177 -0.426407
v 4.688863 0.828177 -1.614894
v -4.688863 0.828177 -1.614894
v -4.688863 0.828177 1.614894
v 4.688863 0.828177 1.614894
v 4.688863 0.828177 0.426407
v -4.688863 0.828177 0.426407
v -5.292105 9.987658 3.061950
v -7.327585 7.952178 3.061950
v -6.731407 9.391479 3.061950
v -7.327585 7.952178 -3.061950
v -5.292105 9.987658 -3.061950
v -6.731407 9.391479 -3.061950
v 7.327585 7.952178 3.061950
v 5.292105 9.987658 3.061950
v 6.731407 9.391479 3.061950
v 5.292105 9.987658 -3.061950
v 7.327585 7.952178 -3.061950
v 6.731407 9.391479 -3.061950
v -5.292105 9.987658 0.426407
v -7.327585 7.952178 0.426407
v -6.731407 9.391479 0.426407
v -7.327585 7.952178 1.614894
v -5.292105 9.987658 1.614894
v -6.731407 9.391479 1.614894
v -5.292105 9.987658 -1.614894
v -7.327585 7.952178 -1.614894
v -6.731407 9.391479 -1.614894
v -7.327585 7.952178 -0.426407
v -5.292105 9.987658 -0.426407
v -6.731407 9.391479 -0.426407
v 5.292105 9.987658 -0.426407
v 7.327585 7.952178 -0.426407
v 6.731407 9.391479 -0.426407
v 7.327585 7.952178 -1.614894
v 5.292105 9.987658 -1.614894
v 6.731407 9.391479 -1.614894
v 5.292105 9.987658 1.614894
v 7.327585 7.952178 1.614894
v 6.731407 9.391479 1.614894
v 7.327585 7.952178 0.426407
v 5.292105 9.987658 0.426407
v 6.731407 9.391479 0.426407
v 7.588928 0.673174 3.285606
v 7.588928 1.873363 3.285606
v 7.588928 0.673174 -3.285606
v 7.588928 1.873363 -3.285606
v -7.184312 3.603973 -1.098162
v -7.184312 2.403785 -1.098162
v -7.184312 3.603973 1.098162
v -7.184312 2.403785 1.098162
v -8.513922 2.403785 1.098162
v -8.513922 3.603973 1.098162
v -8.513922 3.603973 -1.098162
v -8.513922 2.403785 -1.098162
v 7.184312 3.603973 -1.098162
v 7.184312 2.403785 -1.098162
v 7.184312 3.603973 1.098162
v 7.184312 2.403785 1.098162
v 8.513922 2.403785 1.098162
v 8.513922 3.603973 1.098162
v 8.513922 3.603973 -1.098162
v 8.513922 2.403785 -1.098162
v 7.588928 1.873363 -0.013863
v 7.588928 0.673174 -0.013863
v -7.588928 0.673174 -0.013863
v -7.588928 1.873363 -0.013863
v 0.000000 1.873363 3.285606
v 0.000000 1.873363 -3.285606
v 0.000000 0.673174 -3.285606
v 0.000000 0.673174 3.285606
v 0.000000 1.873363 -0.013863
v 0.000000 0.673174 -0.013863
v 7.193721 0.673174 -1.960278
v 7.193721 0.673174 -2.908985
v 6.055294 0.673174 -2.908985
v 6.055294 0.673174 -1.960278
v 6.055294 0.673174 2.899142
v 7.193721 0.673174 2.899142
v 7.193721 0.673174 1.942396
v 6.055294 0.673174 1.942396
v -6.055295 0.673174 -2.908985
v -7.193722 0.673174 -2.908985
v -7.193722 0.673174 -1.960278
v -6.055295 0.673174 -1.960278
v -7.193722 0.673174 1.942396
v -7.193722 0.673174 2.899142
v -6.055295 0.673174 1.942396
v -6.055295 0.673174 2.899142
v 7.193721 0.001506 -1.960278
v 7.193721 0.001506 -2.908985
v 6.055294 0.001506 -2.908985
v 6.055294 0.001506 -1.960278
v 6.055294 0.001506 2.899142
v 7.193721 0.001506 2.899142
v 7.193721 0.001506 1.942396
v 6.055294 0.001506 1.942396
v -6.055295 0.001506 -2.908985
v -7.193722 0.001506 -2.908985
v -7.193722 0.001506 -1.960278
v -6.055295 0.001506 -1.960278
v -7.193722 0.001506 1.942396
v -7.193722 0.001506 2.899142
v -6.055295 0.001506 1.942396
v -6.055295 0.001506 2.899142
vn 0.0000 1.0000 0.0000
vn 1.0000 0.0000 0.0000
vn -0.0000 0.0000 -1.0000
vn -0.0000 0.0000 1.0000
vn -1.0000 0.0000 0.0000
vn 0.0000 -1.0000 0.0000
vn -0.9239 0.3827 0.0000
vn -0.3827 0.9239 0.0000
vn 0.9239 0.3827 0.0000
vn 0.3827 0.9239 0.0000
usemtl 455A64
s off
f 27//1 65//1 49//1 33//1
f 18//2 80//2 55//2 5//2
f 58//1 37//1 30//1 77//1
f 40//3 37//3 58//3 60//3 59//3 7//3
f 5//4 55//4 57//4 56//4 34//4 35//4
f 10//5 68//5 52//5 3//5
f 73//1 32//1 25//1 83//1
f 65//1 27//1 26//1 61//1
f 31//1 71//1 61//1 26//1
f 38//1 53//1 67//1 29//1
f 42//6 20//6 17//6 47//6
f 79//1 28//1 34//1 56//1
f 11//6 45//6 36//6 1//6
f 9//6 41//6 48//6 12//6
f 68//5 10//5 9//5 70//5
f 28//1 79//1 83//1 25//1
f 18//6 46//6 47//6 17//6
f 20//2 74//2 82//2 17//2
f 12//5 62//5 70//5 9//5
f 32//1 73//1 77//1 30//1
f 3//6 39//6 44//6 10//6
f 45//6 11//6 12//6 48//6
f 41//6 9//6 10//6 44//6
f 71//1 31//1 29//1 67//1
f 1//5 50//5 64//5 11//5
f 20//6 42//6 43//6 19//6
f 7//2 59//2 76//2 19//2
f 74//2 20//2 19//2 76//2
f 62//5 12//5 11//5 64//5
f 3//3 52//3 54//3 53//3 38//3 39//3
f 46//6 18//6 5//6 35//6
f 40//6 7//6 19//6 43//6
f 38//1 29//1 30//1 37//1
f 46//6 35//6 36//6 45//6
f 40//6 43//6 44//6 39//6
f 42//6 47//6 48//6 41//6
f 41//6 44//6 43//6 42//6
f 45//6 48//6 47//6 46//6
f 31//1 26//1 25//1 32//1
f 27//1 33//1 34//1 28//1
f 33//4 36//4 35//4 34//4
f 37//3 40//3 39//3 38//3
f 80//2 18//2 17//2 82//2
f 68//7 70//7 72//7 69//7
f 69//8 72//8 71//8 67//8
f 74//9 76//9 78//9 75//9
f 75//10 78//10 77//10 73//10
f 62//7 64//7 66//7 63//7
f 63//8 66//8 65//8 61//8
f 80//9 82//9 84//9 81//9
f 81//10 84//10 83//10 79//10
f 61//8 71//8 72//8 63//8
f 63//7 72//7 70//7 62//7
f 67//8 53//8 54//8 69//8
f 69//7 54//7 52//7 68//7
f 49//8 65//8 66//8 51//8
f 51//7 66//7 64//7 50//7
f 55//9 80//9 81//9 57//9
f 57//10 81//10 79//10 56//10
f 82//9 74//9 75//9 84//9
f 84//10 75//10 73//10 83//10
f 76//9 59//9 60//9 78//9
f 78//10 60//10 58//10 77//10
f 36//4 33//4 49//4 51//4 50//4 1//4
usemtl 1A1A1A
f 23//1 22//1 21//1 24//1
f 26//2 27//2 24//2 21//2
f 32//5 30//5 15//5 13//5
f 13//1 15//1 16//1 14//1
f 28//5 25//5 22//5 23//5
f 30//4 29//4 16//4 15//4
f 29//2 31//2 14//2 16//2
f 31//3 32//3 13//3 14//3
f 25//4 26//4 21//4 22//4
f 27//3 28//3 23//3 24//3
f 107//5 108//5 2//5 4//5
f 111//3 110//3 88//3 87//3
f 106//2 105//2 86//2 85//2
f 112//4 109//4 6//4 8//4
f 106//6 85//6 120//6 121//6
f 113//1 108//1 6//1 109//1
f 92//2 90//2 89//2 91//2
f 93//5 94//5 95//5 96//5
f 91//1 89//1 95//1 94//1
f 89//3 90//3 96//3 95//3
f 90//6 92//6 93//6 96//6
f 92//4 91//4 94//4 93//4
f 100//5 99//5 97//5 98//5
f 101//2 104//2 103//2 102//2
f 99//1 102//1 103//1 97//1
f 97//3 103//3 104//3 98//3
f 98//6 104//6 101//6 100//6
f 100//4 101//4 102//4 99//4
f 110//1 2//1 108//1 113//1
f 111//6 87//6 116//6 117//6
f 87//2 88//2 105//2 106//2
f 8//5 6//5 108//5 107//5
f 4//6 111//6 123//6 124//6
f 88//1 110//1 113//1 105//1
f 105//1 113//1 109//1 86//1
f 114//6 112//6 130//6 129//6
f 85//4 86//4 109//4 112//4
f 4//3 2//3 110//3 111//3
f 121//2 120//2 136//2 137//2
f 87//6 106//6 115//6 116//6
f 106//6 114//6 118//6 115//6
f 114//6 111//6 117//6 118//6
f 124//3 123//3 139//3 140//3
f 112//6 114//6 122//6 119//6
f 85//6 112//6 119//6 120//6
f 114//6 106//6 121//6 122//6
f 117//3 116//3 132//3 133//3
f 107//6 4//6 124//6 125//6
f 114//6 107//6 125//6 126//6
f 111//6 114//6 126//6 123//6
f 120//4 119//4 135//4 136//4
f 8//6 107//6 127//6 128//6
f 112//6 8//6 128//6 130//6
f 107//6 114//6 129//6 127//6
f 133//6 132//6 131//6 134//6
f 138//6 137//6 136//6 135//6
f 140//6 139//6 142//6 141//6
f 143//6 145//6 146//6 144//6
f 128//5 127//5 143//5 144//5
f 115//4 118//4 134//4 131//4
f 125//5 124//5 140//5 141//5
f 122//3 121//3 137//3 138//3
f 127//3 129//3 145//3 143//3
f 118//5 117//5 133//5 134//5
f 126//4 125//4 141//4 142//4
f 119//5 122//5 138//5 135//5
f 130//4 128//4 144//4 146//4
f 123//2 126//2 142//2 139//2
f 129//2 130//2 146//2 145//2
f 116//2 115//2 131//2 132//2
